<svg width="28" height="29" viewBox="0 0 28 29" fill="none" xmlns="http://www.w3.org/2000/svg">
<path d="M14.6562 4.10558C14.6746 4.10558 14.6925 4.10547 14.7108 4.10547C17.3763 4.10547 19.874 5.136 21.7484 7.01037C23.6382 8.90021 24.6719 11.4192 24.6591 14.1032C24.6563 14.7072 25.1436 15.1992 25.7477 15.2021C25.7495 15.2021 25.7512 15.2021 25.753 15.2021C26.3545 15.2021 26.8437 14.7158 26.8466 14.1136C26.8622 10.8412 25.6009 7.76932 23.2952 5.46353C21.0074 3.17567 17.961 1.91797 14.7112 1.91797C14.6912 1.91797 14.6711 1.91802 14.6511 1.91808C14.047 1.92098 13.5597 2.413 13.5625 3.01703C13.5654 3.6193 14.0545 4.10558 14.6562 4.10558Z" fill="white"/>
<path d="M27.9972 23.3261C27.9582 22.243 27.507 21.2323 26.7269 20.4801C25.1994 19.0072 23.9197 18.1569 22.6994 17.8043C21.0177 17.3183 19.4605 17.7603 18.0706 19.1177C18.0685 19.1197 18.0664 19.1218 18.0643 19.1238L16.5841 20.593C15.6648 20.0765 13.8776 18.94 11.9229 16.9852L11.7789 16.8414C9.83708 14.8996 8.69329 13.1022 8.17289 12.1791L9.64065 10.7003C9.64272 10.6982 9.64475 10.6961 9.64683 10.694C11.0042 9.30418 11.4462 7.74679 10.9602 6.06526C10.6076 4.84501 9.75735 3.56521 8.28439 2.03773C7.53217 1.25762 6.52143 0.806444 5.43845 0.767397C4.35569 0.728404 3.31482 1.10542 2.50824 1.82948L2.47685 1.8577C2.46224 1.87077 2.44802 1.88428 2.43419 1.89812C0.828561 3.50364 -0.0130807 5.7514 0.000153704 8.39834C0.0225756 12.8948 2.49385 18.037 6.61073 22.1538C6.61418 22.1572 6.61757 22.1606 6.62102 22.164C7.39495 22.9368 8.27367 23.7016 9.23301 24.4372C9.71234 24.8047 10.3989 24.7141 10.7665 24.2347C11.1341 23.7553 11.0434 23.0688 10.564 22.7012C9.67614 22.0205 8.86649 21.3158 8.15757 20.6069C8.15418 20.6035 8.15079 20.6001 8.14735 20.5968C4.43488 16.8801 2.20724 12.3168 2.1876 8.38735C2.17743 6.34881 2.79064 4.64732 3.96118 3.4647L3.96954 3.45715C4.76459 2.74359 5.96827 2.78701 6.70983 3.55603C9.54161 6.49264 9.33653 7.87903 8.08528 9.16211L6.05779 11.2049C5.73984 11.5252 5.6513 12.008 5.83494 12.4203C5.8864 12.5359 7.13153 15.2874 10.2326 18.3885L10.3765 18.5323C13.4772 21.633 16.2287 22.8781 16.3443 22.9296C16.7567 23.1133 17.2394 23.0247 17.5598 22.7067L19.6022 20.6796C20.8855 19.4282 22.2719 19.2228 25.2086 22.0547C25.9776 22.7963 26.0211 23.9999 25.3076 24.7948L25.2999 24.8034C24.1268 25.9644 22.4435 26.5771 20.4271 26.5771C20.4105 26.5771 20.3939 26.5771 20.3772 26.577C18.7655 26.5689 16.8992 26.1271 14.9802 25.2994C14.4255 25.0601 13.7819 25.3158 13.5427 25.8705C13.3034 26.4251 13.5591 27.0687 14.1138 27.308C16.332 28.2648 18.4357 28.7548 20.3663 28.7645C20.3868 28.7645 20.4072 28.7646 20.4277 28.7646C23.048 28.7645 25.2734 27.9236 26.8665 26.3305C26.8804 26.3166 26.8938 26.3024 26.9069 26.2878L26.9353 26.2562C27.6591 25.4498 28.0363 24.4092 27.9972 23.3261Z" fill="white"/>
<path d="M20.2048 8.55989C19.0316 7.38662 17.9056 7.07529 17.3644 6.92561C16.7821 6.76455 16.1797 7.10602 16.0187 7.68828C15.8577 8.27048 16.1991 8.87298 16.7814 9.03398C17.2239 9.15637 17.8927 9.34132 18.6581 10.1067C19.3949 10.8435 19.5906 11.5086 19.7201 11.9488L19.7359 12.0024C19.8767 12.478 20.3122 12.786 20.7843 12.786C20.8871 12.786 20.9916 12.7714 21.0952 12.7407C21.6744 12.5693 22.005 11.9607 21.8335 11.3815L21.8187 11.3313C21.65 10.7581 21.3359 9.69099 20.2048 8.55989Z" fill="white"/>
</svg>
