<svg width="30" height="29" viewBox="0 0 30 29" fill="none" xmlns="http://www.w3.org/2000/svg">
<path d="M27.3633 4.28028H24.7266V3.40137C24.7266 1.94748 23.5438 0.764648 22.0899 0.764648H2.63672C1.18283 0.764648 0 1.94748 0 3.40137V17.4639C0 18.9178 1.18283 20.1006 2.63672 20.1006H5.27345V24.4952C5.27345 25.2794 6.22396 25.6666 6.7738 25.1166L8.27422 23.6163H18.2102L23.2262 28.6322C23.7763 29.1826 24.7266 28.7963 24.7266 28.0108V23.6163H27.3633C28.8172 23.6163 30 22.4334 30 20.9795V6.917C30.0001 5.46311 28.8172 4.28028 27.3633 4.28028ZM7.03126 22.3733V19.2217C7.03126 18.7363 6.63775 18.3428 6.15236 18.3428H2.63672C2.15209 18.3428 1.75782 17.9485 1.75782 17.4639V3.40137C1.75782 2.91674 2.15209 2.52246 2.63672 2.52246H22.0899C22.5745 2.52246 22.9688 2.91674 22.9688 3.40137V17.4639C22.9688 17.9485 22.5745 18.3428 22.0899 18.3428H11.4258C11.1927 18.3428 10.9692 18.4354 10.8044 18.6003L7.03126 22.3733ZM28.2422 20.9795C28.2422 21.4642 27.848 21.8584 27.3633 21.8584H23.8477C23.3623 21.8584 22.9688 22.252 22.9688 22.7373V25.8889L19.1957 22.1159C19.0309 21.9511 18.8073 21.8584 18.5743 21.8584H10.032L11.7898 20.1006H22.0899C23.5438 20.1006 24.7266 18.9178 24.7266 17.4639V6.0381H27.3633C27.848 6.0381 28.2422 6.43237 28.2422 6.917V20.9795Z" fill="white"/>
<path d="M16.8164 6.03809H4.39453C3.90914 6.03809 3.51562 6.4316 3.51562 6.91699C3.51562 7.40239 3.90914 7.7959 4.39453 7.7959H16.8164C17.3018 7.7959 17.6953 7.40239 17.6953 6.91699C17.6953 6.4316 17.3018 6.03809 16.8164 6.03809Z" fill="white"/>
<path d="M20.3321 9.55371H4.39453C3.90914 9.55371 3.51562 9.94723 3.51562 10.4326C3.51562 10.918 3.90914 11.3115 4.39453 11.3115H20.3321C20.8175 11.3115 21.211 10.918 21.211 10.4326C21.211 9.94723 20.8175 9.55371 20.3321 9.55371Z" fill="white"/>
<path d="M13.3008 13.0693H4.39453C3.90914 13.0693 3.51562 13.4629 3.51562 13.9482C3.51562 14.4336 3.90914 14.8272 4.39453 14.8272H13.3008C13.7862 14.8272 14.1797 14.4336 14.1797 13.9482C14.1797 13.4629 13.7862 13.0693 13.3008 13.0693Z" fill="white"/>
</svg>
