<svg width="31" height="31" viewBox="0 0 31 31" fill="none" xmlns="http://www.w3.org/2000/svg">
<path d="M29.6524 8.09146C29.4328 7.9254 29.1479 7.87179 28.8829 7.94679L16.4605 11.4626C16.0821 11.5697 15.8209 11.915 15.8209 12.3083V24.2075C15.3033 23.9073 14.7032 23.7345 14.063 23.7345C12.1244 23.7345 10.5472 25.3117 10.5472 27.2503C10.5472 29.1889 12.1244 30.7661 14.063 30.7661C16.0016 30.7661 17.5788 29.1889 17.5788 27.2503C17.5788 27.159 17.5788 16.4888 17.5788 16.4888L28.2433 13.4705V20.6917C27.7257 20.3916 27.1256 20.2188 26.4854 20.2188C24.5468 20.2188 22.9696 21.7959 22.9696 23.7345C22.9696 25.6731 24.5468 27.2503 26.4854 27.2503C28.424 27.2503 30.0012 25.6731 30.0012 23.7345C30.0012 23.6565 30.0012 8.79251 30.0012 8.79251C30.0012 8.51711 29.8721 8.25758 29.6524 8.09146ZM14.0631 29.0082C13.0938 29.0082 12.3052 28.2196 12.3052 27.2503C12.3052 26.281 13.0938 25.4924 14.0631 25.4924C15.0324 25.4924 15.821 26.281 15.821 27.2503C15.821 28.2196 15.0324 29.0082 14.0631 29.0082ZM26.4855 25.4924C25.5162 25.4924 24.7276 24.7038 24.7276 23.7345C24.7276 22.7652 25.5162 21.9766 26.4855 21.9766C27.4548 21.9766 28.2433 22.7652 28.2433 23.7345C28.2433 24.7038 27.4548 25.4924 26.4855 25.4924ZM28.2433 11.6436L17.5788 14.6619V12.973L28.2433 9.95476V11.6436Z" fill="white"/>
<path d="M12.2644 7.004C10.3143 5.57449 8.8857 4.15869 7.89695 2.67556L6.88388 1.15611C6.669 0.833827 6.2685 0.690207 5.89788 0.802419C5.5272 0.914689 5.27365 1.25636 5.27365 1.64368V15.418C4.75607 15.1178 4.15593 14.945 3.51577 14.945C1.57717 14.945 0 16.5222 0 18.4608C0 20.3994 1.57717 21.9766 3.51577 21.9766C5.45436 21.9766 7.03154 20.3994 7.03154 18.4608V4.47933C8.08199 5.83284 9.46263 7.12987 11.2251 8.42185C11.9014 8.91758 12.3052 9.71325 12.3052 10.5504C12.3052 12.0043 11.1223 13.1872 9.66837 13.1872C9.18295 13.1872 8.78942 13.5807 8.78942 14.0661C8.78942 14.5515 9.18295 14.9451 9.66837 14.9451C12.0916 14.945 14.0631 12.9735 14.0631 10.5503C14.0631 9.1553 13.3906 7.82956 12.2644 7.004ZM3.51577 20.2187C2.54647 20.2187 1.75788 19.4301 1.75788 18.4608C1.75788 17.4915 2.54647 16.7029 3.51577 16.7029C4.48507 16.7029 5.27365 17.4915 5.27365 18.4608C5.27365 19.4301 4.48507 20.2187 3.51577 20.2187Z" fill="white"/>
</svg>
