<svg width="218" height="208" viewBox="0 0 218 208" fill="none" xmlns="http://www.w3.org/2000/svg">
<path d="M180.305 145.666C183.916 145.771 185.699 127.975 181.58 126.602C185.072 123.445 185.682 118.363 183.503 114.433C183.714 114.304 183.933 114.179 184.137 114.047C187.887 111.65 190.419 108.521 191.486 104.201C192.408 100.451 190.739 95.699 189.949 92.059C188.978 87.5806 187.567 83.2689 183.801 80.3478C180.542 77.822 176.119 77.3121 172.159 76.929C163.702 76.1079 155.328 74.11 146.896 72.9196C145.115 72.6663 143.36 72.453 141.608 72.2869C146.509 71.413 151.414 70.532 156.309 69.582C161.342 68.6114 162.849 63.1602 159.269 59.6065C155.991 56.3523 151.229 54.7601 146.443 53.8741C147.433 53.7878 148.415 53.6797 149.413 53.5428C152.046 53.1762 156.662 48.6011 155.684 48.539C153.327 48.3825 133.753 45.9655 129.119 45.6386C119.676 44.9691 110.25 43.9627 100.795 43.3329C81.7129 42.0574 62.6864 42.8475 44.6365 49.7462C42.0963 50.715 40.0949 53.6408 40.5799 56.4161C40.9611 58.5929 40.9556 60.6362 41.5288 62.8109C42.1759 65.2506 44.8686 66.9604 47.1837 67.3955C56.4479 69.1469 65.8035 69.8991 75.1547 70.7309C64.0002 72.9532 52.9075 75.6072 42.4194 79.6789C42.0015 79.8386 41.6195 80.0348 41.2627 80.2529C39.2938 79.5489 37.1638 79.0717 35.1354 79.9287C33.3941 80.6683 31.5081 81.8343 30.8266 83.7055C29.9562 86.0897 30.33 88.7265 32.4108 90.3879C33.0047 90.8636 33.5894 91.1436 34.2144 91.3624C34.1819 91.3549 34.1421 91.3437 34.1132 91.329C34.919 91.6035 35.7066 91.8779 36.5198 92.1199C37.2859 92.3651 38.0382 92.5124 38.8025 92.5294C38.7647 92.7283 38.7306 92.9201 38.711 93.101C38.2913 96.6699 39.4424 99.5121 41.7851 101.944C41.2847 101.998 40.7878 102.063 40.2802 102.113C36.1578 102.511 33.9539 126.249 38.2548 127.997C45.8745 131.083 68.2432 133.225 69.5567 133.431C67.882 133.541 66.2037 133.658 64.5143 133.796C59.3627 134.234 60.6329 145.293 62.9658 145.783C68.0294 146.838 73.3121 147.232 78.4597 147.747C88.9794 148.802 99.5124 149.546 110.044 150.47C110.46 150.51 110.873 150.538 111.289 150.578C106.173 150.697 101.018 150.587 95.9646 151.028C91.6178 151.403 73.7969 151.398 69.8235 153.091C69.3109 153.311 77.1987 155.034 80.9082 155.071C85.9038 155.118 90.8476 155.302 95.8178 155.809C105.269 156.765 114.8 155.979 124.254 156.645C133.075 157.27 141.885 157.307 150.708 157.588C155.011 157.727 159.256 157.855 163.562 157.651C167.643 157.459 173.049 157.306 176.331 154.67C178.781 152.7 179.51 149.489 178.669 146.823C179.265 146.509 179.823 146.129 180.305 145.666Z" fill="#FF1F00"/>
<path d="M193.586 102.17C194.446 103.337 195.572 103.875 196.935 104.233C196.942 104.237 196.949 104.241 196.967 104.241C197.809 104.516 198.63 104.743 199.58 104.646C200.726 104.521 201.711 104.032 202.597 103.329C204.297 101.959 204.991 99.8125 204.222 97.7377C203.675 96.2769 202.689 95.0372 201.241 94.3808C199.992 93.8165 198.59 93.8742 197.257 93.9034C194.963 93.9611 193.008 96.083 192.653 98.2394C192.411 99.607 192.751 101.044 193.586 102.17Z" fill="#FF1F00"/>
<path d="M25.1136 86.8115C24.6662 85.674 23.8213 84.8702 22.746 84.3218C20.5306 83.1919 17.7059 84.4156 16.7211 86.5959C16.2196 87.7042 16.1875 88.9973 16.6277 90.1311C17.0714 91.2759 17.9201 92.0724 18.9953 92.6208C21.2107 93.7508 24.0355 92.527 25.0202 90.3467C25.529 89.2421 25.561 87.949 25.1136 86.8115Z" fill="#FF1F00"/>
<path d="M208.059 138.906C206.572 138.148 204.678 138.973 204.015 140.435C203.303 142.009 204.057 143.721 205.544 144.48C207.03 145.238 208.924 144.412 209.588 142.95C210.296 141.384 209.546 139.664 208.059 138.906Z" fill="#FF1F00"/>
</svg>
