<svg width="424" height="431" viewBox="0 0 424 431" fill="none" xmlns="http://www.w3.org/2000/svg">
<path d="M32.4786 313.847C24.3691 313.886 21.3361 273.853 30.6545 270.996C22.9893 263.722 21.8984 252.285 27.0013 243.584C26.5344 243.284 26.0512 242.991 25.6008 242.683C17.3143 237.099 11.8026 229.941 9.64327 220.187C7.78021 211.722 11.783 201.149 13.7533 193.024C16.177 183.027 19.5783 173.428 28.189 167.078C35.639 161.587 45.5925 160.683 54.5008 160.039C73.5226 158.657 92.4247 154.63 111.411 152.417C115.42 151.946 119.371 151.563 123.312 151.285C112.361 149.057 101.401 146.813 90.4681 144.415C79.2272 141.963 76.1417 129.648 84.369 121.868C91.9024 114.744 102.676 111.43 113.464 109.702C111.248 109.455 109.049 109.159 106.818 108.797C100.929 107.831 90.8196 97.3128 93.017 97.2265C98.3154 97.0037 142.371 92.6452 152.789 92.1641C174.017 91.1756 195.224 89.4304 216.475 88.5317C259.367 86.7082 302.021 89.5168 342.151 105.981C347.798 108.293 352.131 114.968 350.891 121.169C349.917 126.034 349.818 130.619 348.414 135.468C346.829 140.908 340.693 144.598 335.474 145.449C314.589 148.874 293.553 150.053 272.523 151.411C297.434 157.005 322.182 163.565 345.497 173.273C346.426 173.654 347.273 174.115 348.061 174.624C352.518 173.151 357.324 172.196 361.829 174.23C365.696 175.985 369.865 178.704 371.293 182.94C373.116 188.338 372.134 194.235 367.374 197.85C366.015 198.885 364.688 199.481 363.273 199.938C363.347 199.923 363.437 199.9 363.502 199.869C361.679 200.441 359.897 201.014 358.059 201.513C356.326 202.021 354.63 202.311 352.914 202.307C352.988 202.756 353.054 203.188 353.088 203.595C353.836 211.627 351.098 217.942 345.708 223.271C346.828 223.42 347.94 223.592 349.076 223.733C358.305 224.851 361.959 278.24 352.212 281.929C334.945 288.439 284.631 292.029 281.673 292.42C285.425 292.757 289.185 293.111 292.968 293.514C304.505 294.776 301.052 319.526 295.791 320.498C284.37 322.589 272.494 323.185 260.914 324.062C237.25 325.857 213.572 326.952 189.888 328.453C188.952 328.519 188.024 328.561 187.087 328.627C198.563 329.172 210.136 329.206 221.453 330.472C231.187 331.549 271.179 332.509 280.003 336.524C281.142 337.046 263.347 340.482 255.021 340.363C243.808 340.197 232.703 340.341 221.522 341.209C200.26 342.839 178.915 340.556 157.663 341.536C137.835 342.458 118.061 342.063 98.2463 342.212C88.5827 342.291 79.0496 342.347 69.3986 341.653C60.2511 341 48.1267 340.364 40.9059 334.268C35.5144 329.716 34.0545 322.47 36.0868 316.533C34.7649 315.796 33.5349 314.913 32.4786 313.847Z" fill="#FFF500"/>
<path d="M5.04187 215.517C3.04807 218.087 0.49183 219.233 -2.5863 219.963C-2.60269 219.971 -2.61907 219.979 -2.65973 219.978C-4.56407 220.549 -6.41791 221.015 -8.54442 220.745C-11.109 220.402 -13.2943 219.252 -15.2443 217.627C-18.9828 214.459 -20.4248 209.604 -18.5848 204.99C-17.2794 201.742 -14.9984 199.013 -11.7143 197.619C-8.88068 196.421 -5.73646 196.627 -2.74567 196.765C2.39855 197.019 6.67065 201.887 7.348 206.746C7.81839 209.828 6.97729 213.035 5.04187 215.517Z" fill="#FFF500"/>
</svg>
