<svg width="33" height="25" viewBox="0 0 33 25" fill="none" xmlns="http://www.w3.org/2000/svg">
<path d="M32.3603 2.73485C32.3582 2.73485 32.356 2.73485 32.3539 2.73485H30.1855V1.99285C30.1972 1.69916 30.0072 1.43523 29.7249 1.35319C28.2195 0.95868 26.6693 0.760865 25.113 0.764703C22.5544 0.764703 19.0682 1.3404 16.4904 3.963C13.9318 1.31481 10.42 0.764703 7.8678 0.764703C6.31151 0.760865 4.7613 0.95868 3.25586 1.35319C2.97361 1.43523 2.78364 1.69916 2.79531 1.99285V2.72846H0.639659C0.286407 2.72846 0 3.01486 0 3.36811V23.7988C0 24.1521 0.286407 24.4385 0.639659 24.4385C0.74952 24.4382 0.857463 24.4095 0.953092 24.3553C1.01706 24.3233 7.41365 20.8244 16.3433 23.076H16.4392H16.4968C16.5478 23.0822 16.5993 23.0822 16.6503 23.076C25.6055 20.8052 32.0021 24.2978 32.0405 24.3553C32.2384 24.4696 32.4823 24.4696 32.6802 24.3553C32.8769 24.2418 32.9986 24.0324 33 23.8052V3.37451C33 3.02126 32.7137 2.73485 32.3603 2.73485ZM1.27932 22.7818V4.01417H2.8081V20.0568C2.8041 20.4101 3.08723 20.6997 3.44049 20.7037C3.47503 20.7041 3.50957 20.7017 3.54371 20.6965C4.867 20.4944 6.20301 20.3875 7.54158 20.3766C9.39579 20.3445 11.2422 20.6234 13.0043 21.2018C9.02519 20.7206 4.9891 21.2645 1.27932 22.7818ZM7.54158 19.1037C6.37812 19.1064 5.21602 19.1811 4.06183 19.3276V2.49818C5.30725 2.22073 6.57905 2.07912 7.85501 2.076C10.2473 2.076 13.548 2.62611 15.838 5.21033L15.8571 21.1442C14.5267 20.2743 11.9296 19.1037 7.54158 19.1037ZM17.1365 5.21033C19.4264 2.6517 22.7271 2.076 25.1194 2.076C26.3953 2.07976 27.6671 2.22129 28.9126 2.49818V19.3276C27.7649 19.1798 26.6092 19.1028 25.452 19.0973C21.0896 19.0973 18.4861 20.2679 17.1365 21.1378V5.21033ZM31.7143 22.7818C27.9966 21.2603 23.9512 20.7164 19.9638 21.2018C21.7341 20.6213 23.5893 20.3423 25.452 20.3766C26.799 20.3842 28.1436 20.4889 29.4755 20.6901C29.8247 20.7431 30.1509 20.5029 30.2039 20.1536C30.2091 20.1195 30.2115 20.085 30.2111 20.0504V4.01417H31.7399L31.7143 22.7818Z" fill="white"/>
</svg>
