<svg width="30" height="31" viewBox="0 0 30 31" fill="none" xmlns="http://www.w3.org/2000/svg">
<path d="M2.61399 19.5462C3.02216 19.5462 3.35297 19.8837 3.35297 20.3001V26.9945C3.35441 28.2433 4.34598 29.2552 5.56992 29.2564H26.3051C27.529 29.2552 28.5206 28.2433 28.522 26.9945V7.34697C28.5206 6.09851 27.529 5.08655 26.3051 5.08508H19.7437C19.3355 5.08508 19.0047 4.74756 19.0047 4.33111C19.0047 3.91496 19.3355 3.57715 19.7437 3.57715H26.3051C28.3448 3.5795 29.9977 5.26591 30 7.34697V26.9948C29.9977 29.0759 28.3448 30.7623 26.3051 30.7646H5.56992C3.53021 30.7623 1.87731 29.0759 1.875 26.9948V20.3001C1.875 19.8837 2.20581 19.5462 2.61399 19.5462Z" fill="white"/>
<path d="M1.82996 1.73345C3.12181 0.441714 5.21623 0.441714 6.50808 1.73345L19.6224 14.8467C19.7123 14.9365 19.7772 15.0479 19.8111 15.1702L21.5357 21.3958C21.6066 21.651 21.5345 21.9244 21.3473 22.1119C21.1598 22.2991 20.8864 22.3711 20.6312 22.3005L14.4051 20.5758C14.2827 20.5419 14.1713 20.477 14.0815 20.3871L0.967382 7.27366C-0.32246 5.98106 -0.32246 3.88855 0.967382 2.59595L1.82996 1.73345ZM18.0208 15.3244L7.28767 4.59199L3.82617 8.05318L14.5596 18.7856L18.0208 15.3244ZM18.7122 16.7118L15.9467 19.4773L19.772 20.537L18.7122 16.7118ZM2.00684 6.2343L2.78643 7.01382L6.24822 3.55234L5.46834 2.77282C4.75077 2.05531 3.58727 2.05531 2.8697 2.77282L2.00684 3.63531C1.29042 4.35368 1.29042 5.51622 2.00684 6.2343Z" fill="white"/>
</svg>
