<svg width="116" height="117" viewBox="0 0 116 117" fill="none" xmlns="http://www.w3.org/2000/svg">
<path d="M115.781 63.2774C115.926 61.6104 116 59.9257 116 58.2191C116 26.0658 90.0333 0 58.0022 0C25.9667 0 0 26.0658 0 58.2235C0 67.7903 2.30046 76.8205 6.37117 84.7819C17.6456 108.714 44.1863 120.278 69.2328 116.016C75.2228 114.995 81.0155 112.726 86.8521 110.878C96.9566 107.685 106.137 109.409 114.528 115.8C114.883 116.073 115.312 116.24 115.851 116.535C115.851 98.7077 115.855 81.1355 115.825 63.5589C115.825 63.4622 115.807 63.3698 115.781 63.2774Z" fill="#FF1F00"/>
</svg>
