<svg width="28" height="37" viewBox="0 0 28 37" fill="none" xmlns="http://www.w3.org/2000/svg">
<path d="M24.3413 32.6828H21.4504L21.452 28.34C21.452 28.0836 21.3167 27.8471 21.098 27.7215L18.4798 26.2178C18.3524 26.143 18.2072 26.0619 18.0533 25.9763C16.9772 25.377 15.273 24.4272 14.636 22.7645H20.4623L23.4581 25.7801C23.6518 25.9747 23.6518 25.9747 23.647 26.4805C23.6463 26.5583 23.6455 26.6424 23.6455 26.7342V27.8444C23.6455 28.236 23.9561 28.5535 24.3393 28.5535C24.7224 28.5535 25.033 28.236 25.033 27.8444V26.7342C25.033 26.6473 25.0338 26.5676 25.0345 26.494C25.0404 25.8506 25.0448 25.3857 24.4312 24.7693L21.4407 21.7591L21.4449 19.3954L23.2246 19.3939C24.026 19.3918 24.6049 19.3902 25.2701 18.4549C25.2723 18.4518 25.2744 18.4488 25.2765 18.4457L27.5918 15.0781C27.9394 14.5712 28.0711 13.9525 27.9629 13.3363C27.8534 12.7129 27.514 12.1726 27.0074 11.8152C26.5052 11.4609 25.8973 11.3285 25.2951 11.4424C24.6932 11.5564 24.1719 11.9028 23.8274 12.4173L22.3662 14.5972L21.1406 14.591L19.6335 12.1659C21.0417 11.243 22.1231 9.6416 22.1231 7.73598C22.1231 6.67103 21.8116 5.64193 21.2356 4.77139C21.4449 4.5608 21.6264 4.32505 21.7678 4.0606C22.0883 3.46146 22.3231 2.46788 21.6217 1.13749C21.444 0.800059 21.036 0.668223 20.7006 0.839786C19.3407 1.53525 18.3157 1.59347 17.3823 1.59354C17.2674 1.59354 17.1547 1.59248 17.0441 1.59157C16.9335 1.59065 16.8247 1.58974 16.7176 1.58974C16.1817 1.58974 15.5576 1.6088 14.9316 1.83612C13.1776 2.4728 10.494 4.34361 12.2126 9.72176C12.2128 9.7226 12.213 9.7233 12.2133 9.72415C12.2146 9.72822 12.2158 9.73209 12.217 9.7361C12.2229 9.75452 12.2295 9.77245 12.2368 9.7901C12.2369 9.79038 12.237 9.79073 12.2371 9.79101C12.6508 10.7928 13.2382 11.5697 13.9797 12.1099L13.0301 13.5123L8.95843 14.9385C8.06793 15.2491 7.44704 16.104 7.41347 17.0661C7.41319 17.0746 7.41306 17.0829 7.41306 17.0913V17.868H3.44606C3.06293 17.868 2.75232 18.1854 2.75232 18.577C2.75232 18.9686 3.06293 19.286 3.44606 19.286H7.41306V21.3606C7.41306 22.649 8.44452 23.6972 9.71229 23.6972L9.72241 23.6972C10.9829 23.6913 12.0039 22.6355 11.9983 21.3438L11.9886 18.8293L12.3808 18.692L13.0313 22.0571L12.4907 24.9268H8.54441C8.16128 24.9268 7.85074 25.2443 7.85074 25.6358C7.85074 26.0274 8.16128 26.3449 8.54441 26.3449H12.2235L12.0948 27.0279L8.36499 28.3042C8.36141 28.3055 8.35804 28.3071 8.35453 28.3084C8.35144 28.3096 8.34827 28.3103 8.34511 28.3114L5.95244 29.214C5.77977 29.2792 5.63949 29.4118 5.56251 29.5826C5.48552 29.7535 5.47816 29.9486 5.54201 30.1251L7.59812 35.8083C7.66857 36.0029 7.81889 36.1563 8.00952 36.2279C8.08698 36.257 8.16796 36.2713 8.24872 36.2713C8.3665 36.2713 8.4838 36.2407 8.58878 36.1804C9.93231 35.408 10.756 34.1433 10.7244 33.0237L16.127 31.1159C16.9354 30.8287 17.248 30.3625 17.4656 29.9014L18.441 27.8312L19.6302 28.5308C19.6843 28.5626 19.7408 28.586 19.7983 28.6017L20.0643 28.7545L20.0626 33.3893C20.0626 33.3894 20.0626 33.3895 20.0626 33.3896L20.0548 36.0534C20.0543 36.2419 20.1272 36.4228 20.2573 36.5562C20.3875 36.6896 20.5642 36.7646 20.7486 36.7646H26.8604C27.1659 36.7646 27.4354 36.5605 27.5242 36.2618C27.7329 35.5601 27.6019 34.8566 27.1455 34.2271C26.4756 33.3032 25.1548 32.6828 24.3413 32.6828ZM22.7273 16.0172C22.9554 16.0192 23.173 15.9028 23.303 15.7089L24.9722 13.2185C25.107 13.0172 25.3115 12.8817 25.5479 12.8369C25.7845 12.7922 26.0229 12.8438 26.2193 12.9822C26.4194 13.1235 26.5537 13.3381 26.5974 13.5869C26.6399 13.8285 26.5895 14.069 26.4563 14.2634L24.1447 17.6255C23.8969 17.9739 23.8941 17.9739 23.2224 17.9757L21.4474 17.9771L21.4509 16.0106L22.7273 16.0172ZM20.7357 7.73598C20.7357 9.9097 18.715 11.5958 16.9768 11.5958C16.3406 11.5958 15.7829 11.4842 15.2996 11.2593C15.2797 11.2485 15.2595 11.2386 15.2389 11.23C14.5509 10.8915 14.0181 10.3165 13.6299 9.49725C13.9388 8.75798 14.9729 6.6209 16.6403 6.49004C17.0838 6.45552 18.727 6.2841 20.0957 5.58076C20.511 6.21491 20.7357 6.9624 20.7357 7.73598ZM13.2502 5.22132C13.5726 4.2496 14.2745 3.57945 15.3961 3.17234C15.7734 3.03537 16.1815 3.00781 16.7177 3.00781C16.8209 3.00781 16.9258 3.00872 17.0325 3.00957C17.147 3.01062 17.2635 3.01153 17.3825 3.01153C18.3415 3.01153 19.3944 2.93243 20.6424 2.42091C20.7317 2.78231 20.7008 3.09928 20.5504 3.38032C20.0202 4.3718 18.0973 4.95427 16.5347 5.07591C14.9299 5.20191 13.8078 6.39625 13.1108 7.48124C12.994 6.61028 13.0403 5.85399 13.2502 5.22132ZM11.0681 17.6525C10.7867 17.751 10.598 18.0221 10.5992 18.3261L10.6109 21.3497C10.6131 21.8598 10.2117 22.2767 9.71622 22.279H9.71223C9.21799 22.279 8.8004 21.8584 8.8004 21.3605V18.6511C8.80288 18.6267 8.80425 18.602 8.80425 18.5769C8.80425 18.5518 8.80288 18.5272 8.8004 18.5028V17.1057C8.81781 16.7378 9.06561 16.3995 9.40718 16.2804L13.5908 14.8149C13.6831 14.7826 13.779 14.7663 13.8757 14.7663C14.2629 14.7663 14.6065 15.0177 14.7305 15.3919C14.8909 15.8755 14.6399 16.4022 14.1706 16.5662L11.0681 17.6525ZM14.62 17.9081C15.8108 17.4919 16.4499 16.159 16.0446 14.9368C15.8241 14.2716 15.3303 13.7602 14.7172 13.5126L15.2335 12.75C15.7648 12.9249 16.3473 13.0139 16.9768 13.0139C17.4382 13.0139 17.9098 12.9323 18.3713 12.7797L20.0642 15.5036L20.0587 18.6871C20.0587 18.6871 20.0587 18.6872 20.0587 18.6873C20.0587 18.6873 20.0587 18.6873 20.0587 18.6874L20.0541 21.3463H14.3082L13.7054 18.2281L14.62 17.9081ZM8.58548 34.4488L7.084 30.2988L8.1824 29.8846L9.30488 32.8807C9.42727 33.2072 9.21469 33.8628 8.58548 34.4488ZM16.2157 29.2858C16.096 29.5397 16.0133 29.6552 15.6727 29.7762L10.3338 31.6615L9.49194 29.4143L12.9196 28.2413C13.1571 28.1601 13.3332 27.9543 13.3806 27.703L13.9869 24.4846C14.914 25.7962 16.2916 26.6076 17.2303 27.1329L16.2157 29.2858ZM21.4444 35.3466L21.448 34.1009H24.3413C24.6797 34.1009 25.6011 34.4789 26.0308 35.0715C26.1023 35.1702 26.1506 35.2619 26.182 35.3466H21.4444Z" fill="white"/>
<path d="M5.96139 26.3249C6.34452 26.3249 6.65513 26.0073 6.65513 25.6158C6.65513 25.2242 6.34452 24.9067 5.96139 24.9067H5.94392C5.56079 24.9067 5.25024 25.2242 5.25024 25.6158C5.25024 26.0073 5.56079 26.3249 5.94392 26.3249H5.96139Z" fill="white"/>
<path d="M0.711284 17.8679H0.693741C0.310615 17.8679 0 18.1854 0 18.577C0 18.9685 0.310615 19.286 0.693741 19.286H0.711284C1.09441 19.286 1.40496 18.9685 1.40496 18.577C1.40496 18.1854 1.09441 17.8679 0.711284 17.8679Z" fill="white"/>
<path d="M24.3416 29.8574C23.9584 29.8574 23.6478 30.1749 23.6478 30.5665V30.5844C23.6478 30.976 23.9584 31.2934 24.3416 31.2934C24.7247 31.2934 25.0353 30.976 25.0353 30.5844V30.5665C25.0353 30.1748 24.7247 29.8574 24.3416 29.8574Z" fill="white"/>
</svg>
