<svg width="32" height="33" viewBox="0 0 32 33" fill="none" xmlns="http://www.w3.org/2000/svg">
<path d="M30.2084 14.9762H29.4471V10.402C29.4471 8.53157 27.9245 7.01558 26.0607 7.01558H25.3585L25.3651 5.31582C25.3651 4.05577 24.3413 3.03198 23.0812 3.03198H2.77605C1.26005 3.03198 0.0196883 4.25266 0 5.76865C0 5.78178 0 5.7949 0 5.80803V28.2133C0 29.4733 1.02379 30.4971 2.28384 30.4971H26.0673C27.9377 30.4971 29.4536 28.9746 29.4536 27.1107V22.5299H30.2149C31.1993 22.5299 32 21.7293 32 20.7449V16.7613C31.9934 15.7769 31.1928 14.9762 30.2084 14.9762ZM2.77605 4.60704H23.0812C23.4684 4.60704 23.79 4.92206 23.79 5.30926L23.7834 7.01558H2.77605C2.11321 7.01558 1.57506 6.47743 1.57506 5.81459C1.57506 5.15175 2.11321 4.60704 2.77605 4.60704ZM27.872 27.1042C27.872 28.1017 27.0582 28.9155 26.0607 28.9155H2.27728C1.89007 28.9155 1.5685 28.6005 1.5685 28.2067V8.315C1.93601 8.4922 2.3429 8.59064 2.77605 8.59064H26.0607C27.0582 8.59064 27.872 9.40442 27.872 10.402V14.9762H22.4971C21.5127 14.9762 20.7121 15.7769 20.7121 16.7613V20.7449C20.7121 21.7293 21.5127 22.5299 22.4971 22.5299H27.872V27.1042ZM30.4184 20.7449C30.4184 20.863 30.3265 20.9549 30.2084 20.9549H22.5037C22.3856 20.9549 22.2937 20.863 22.2937 20.7449V16.7613C22.2937 16.6497 22.3856 16.5513 22.5037 16.5513H30.2084C30.3199 16.5513 30.4184 16.6431 30.4184 16.7613V20.7449Z" fill="white"/>
<circle cx="25" cy="18.7646" r="1" fill="white"/>
<path d="M8 26.7646C8.55228 26.7646 9 26.3169 9 25.7646C9 25.2124 8.55228 24.7646 8 24.7646V26.7646ZM1 26.7646H8V24.7646H1V26.7646Z" fill="white"/>
</svg>
